<?xml version="1.0" standalone="no"?>
<!DOCTYPE svg PUBLIC "-//W3C//DTD SVG 20010904//EN"
 "http://www.w3.org/TR/2001/REC-SVG-20010904/DTD/svg10.dtd">
<svg version="1.0" xmlns="http://www.w3.org/2000/svg"
 width="200.000000pt" height="200.000000pt" viewBox="0 0 200.000000 200.000000"
 preserveAspectRatio="xMidYMid meet">
<metadata>
Created by potrace 1.14, written by Peter Selinger 2001-2017
</metadata>
<g transform="translate(0.000000,200.000000) scale(0.100000,-0.100000)"
fill="#000000" stroke="none">
<path d="M905 1808 c11 -122 15 -168 21 -263 3 -55 8 -108 10 -117 8 -27 33
-22 29 5 -2 12 -6 60 -9 107 -9 144 -19 264 -22 280 -1 8 -3 21 -3 28 -1 6 -8
12 -16 12 -12 0 -14 -10 -10 -52z"/>
<path d="M1167 1611 c-37 -115 -67 -212 -67 -215 0 -3 6 -6 13 -6 8 0 38 78
80 208 37 114 67 210 67 215 0 4 -6 7 -13 7 -8 0 -38 -79 -80 -209z"/>
<path d="M587 1764 c-5 -5 183 -386 199 -403 2 -3 8 0 13 5 10 9 -179 396
-196 401 -5 2 -12 0 -16 -3z"/>
<path d="M1453 1572 c-39 -48 -103 -123 -142 -168 -46 -53 -67 -85 -61 -93 5
-9 52 39 154 158 128 149 157 193 128 190 -4 0 -39 -39 -79 -87z"/>
<path d="M328 1558 c-3 -7 54 -64 130 -128 74 -63 148 -127 166 -142 34 -30
42 -33 51 -19 3 5 -20 31 -52 58 -31 26 -64 55 -73 63 -9 8 -43 37 -75 65 -33
27 -76 64 -95 82 -39 36 -46 39 -52 21z"/>
<path d="M1538 1299 c-141 -72 -195 -104 -192 -114 7 -18 404 179 404 201 0 7
-3 14 -7 14 -5 -1 -97 -46 -205 -101z"/>
<path d="M886 1334 c-95 -30 -174 -100 -218 -191 -18 -39 -23 -65 -23 -138 0
-78 4 -97 28 -147 55 -112 161 -186 282 -196 101 -8 184 20 257 86 227 205 98
577 -208 597 -46 3 -85 0 -118 -11z"/>
<path d="M165 1269 c-4 -6 -5 -12 -4 -14 12 -11 425 -140 427 -134 2 5 4 11 5
14 1 5 -403 144 -420 145 -1 0 -5 -5 -8 -11z"/>
<path d="M1769 1076 c-2 -2 -44 -6 -94 -9 -268 -18 -285 -20 -285 -35 0 -12
15 -14 98 -8 127 9 241 18 272 22 14 1 37 3 53 3 42 1 36 31 -6 31 -19 0 -36
-2 -38 -4z"/>
<path d="M458 975 c-2 -1 -41 -5 -88 -9 -233 -17 -251 -19 -247 -30 2 -6 24
-11 48 -11 52 1 258 15 285 20 11 2 43 4 72 4 76 1 65 26 -11 27 -31 1 -57 0
-59 -1z"/>
<path d="M1372 868 c4 -10 388 -145 421 -147 4 -1 7 5 7 13 0 10 -63 35 -202
80 -212 69 -232 74 -226 54z"/>
<path d="M415 728 c-104 -53 -194 -99 -200 -101 -6 -3 -6 -9 1 -17 9 -9 54 10
200 85 201 103 214 111 199 123 -6 4 -95 -36 -200 -90z"/>
<path d="M1290 726 c0 -8 4 -16 9 -18 4 -1 37 -28 72 -59 187 -165 254 -218
263 -209 7 7 5 15 -4 24 -53 50 -323 276 -331 276 -5 0 -9 -6 -9 -14z"/>
<path d="M558 527 c-99 -116 -143 -174 -135 -179 13 -9 29 8 177 182 30 36 57
67 60 70 59 61 70 78 58 87 -10 8 -47 -29 -160 -160z"/>
<path d="M1165 630 c-4 -7 172 -376 192 -399 2 -3 8 0 14 6 7 7 -18 67 -86
201 -53 105 -100 194 -105 197 -5 3 -11 1 -15 -5z"/>
<path d="M780 423 c-34 -104 -65 -201 -70 -216 -8 -24 -7 -28 7 -25 11 2 36
63 84 213 38 116 69 211 69 213 0 1 -6 2 -14 2 -10 0 -34 -59 -76 -187z"/>
<path d="M1005 518 c4 -40 8 -89 10 -108 2 -19 7 -88 10 -152 6 -95 11 -118
23 -118 17 0 14 83 -13 383 -5 50 -10 67 -21 67 -13 0 -14 -12 -9 -72z"/>
</g>
</svg>
